# Brutalist Void v2 inspired blockout
# Unity-ready OBJ made from modular boxes
mtllib brutalist_void_v2_accurate_blockout.mtl
o base_north
usemtl Concrete
v -46.0000 0.0000 15.0000
v 46.0000 0.0000 15.0000
v 46.0000 1.0000 15.0000
v -46.0000 1.0000 15.0000
v -46.0000 0.0000 33.0000
v 46.0000 0.0000 33.0000
v 46.0000 1.0000 33.0000
v -46.0000 1.0000 33.0000
f 1 2 3 4
f 5 8 7 6
f 1 5 6 2
f 4 3 7 8
f 1 4 8 5
f 2 6 7 3
o base_mid_west
usemtl Concrete
v -43.0000 0.0000 -12.0000
v -13.0000 0.0000 -12.0000
v -13.0000 1.0000 -12.0000
v -43.0000 1.0000 -12.0000
v -43.0000 0.0000 20.0000
v -13.0000 0.0000 20.0000
v -13.0000 1.0000 20.0000
v -43.0000 1.0000 20.0000
f 9 10 11 12
f 13 16 15 14
f 9 13 14 10
f 12 11 15 16
f 9 12 16 13
f 10 14 15 11
o base_mid_east
usemtl Concrete
v 13.0000 0.0000 -12.0000
v 43.0000 0.0000 -12.0000
v 43.0000 1.0000 -12.0000
v 13.0000 1.0000 -12.0000
v 13.0000 0.0000 20.0000
v 43.0000 0.0000 20.0000
v 43.0000 1.0000 20.0000
v 13.0000 1.0000 20.0000
f 17 18 19 20
f 21 24 23 22
f 17 21 22 18
f 20 19 23 24
f 17 20 24 21
f 18 22 23 19
o base_south
usemtl Concrete
v -39.0000 0.0000 -36.0000
v 39.0000 0.0000 -36.0000
v 39.0000 1.0000 -36.0000
v -39.0000 1.0000 -36.0000
v -39.0000 0.0000 -16.0000
v 39.0000 0.0000 -16.0000
v 39.0000 1.0000 -16.0000
v -39.0000 1.0000 -16.0000
f 25 26 27 28
f 29 32 31 30
f 25 29 30 26
f 28 27 31 32
f 25 28 32 29
f 26 30 31 27
o south_wings_w
usemtl Concrete
v -40.0000 0.0000 -18.0000
v -24.0000 0.0000 -18.0000
v -24.0000 1.0000 -18.0000
v -40.0000 1.0000 -18.0000
v -40.0000 0.0000 -2.0000
v -24.0000 0.0000 -2.0000
v -24.0000 1.0000 -2.0000
v -40.0000 1.0000 -2.0000
f 33 34 35 36
f 37 40 39 38
f 33 37 38 34
f 36 35 39 40
f 33 36 40 37
f 34 38 39 35
o south_wings_e
usemtl Concrete
v 24.0000 0.0000 -18.0000
v 40.0000 0.0000 -18.0000
v 40.0000 1.0000 -18.0000
v 24.0000 1.0000 -18.0000
v 24.0000 0.0000 -2.0000
v 40.0000 0.0000 -2.0000
v 40.0000 1.0000 -2.0000
v 24.0000 1.0000 -2.0000
f 41 42 43 44
f 45 48 47 46
f 41 45 46 42
f 44 43 47 48
f 41 44 48 45
f 42 46 47 43
o east_dark_hall_floor
usemtl DarkConcrete
v 31.0000 0.0000 -11.0000
v 49.0000 0.0000 -11.0000
v 49.0000 1.0000 -11.0000
v 31.0000 1.0000 -11.0000
v 31.0000 0.0000 7.0000
v 49.0000 0.0000 7.0000
v 49.0000 1.0000 7.0000
v 31.0000 1.0000 7.0000
f 49 50 51 52
f 53 56 55 54
f 49 53 54 50
f 52 51 55 56
f 49 52 56 53
f 50 54 55 51
o west_lower_zone_floor
usemtl DarkConcrete
v -48.0000 -1.5000 -11.0000
v -32.0000 -1.5000 -11.0000
v -32.0000 -0.5000 -11.0000
v -48.0000 -0.5000 -11.0000
v -48.0000 -1.5000 7.0000
v -32.0000 -1.5000 7.0000
v -32.0000 -0.5000 7.0000
v -48.0000 -0.5000 7.0000
f 57 58 59 60
f 61 64 63 62
f 57 61 62 58
f 60 59 63 64
f 57 60 64 61
f 58 62 63 59
o void_north_edge
usemtl Concrete
v -21.0000 0.0000 7.5000
v 21.0000 0.0000 7.5000
v 21.0000 2.0000 7.5000
v -21.0000 2.0000 7.5000
v -21.0000 0.0000 12.5000
v 21.0000 0.0000 12.5000
v 21.0000 2.0000 12.5000
v -21.0000 2.0000 12.5000
f 65 66 67 68
f 69 72 71 70
f 65 69 70 66
f 68 67 71 72
f 65 68 72 69
f 66 70 71 67
o void_south_edge
usemtl Concrete
v -21.0000 0.0000 -12.5000
v 21.0000 0.0000 -12.5000
v 21.0000 2.0000 -12.5000
v -21.0000 2.0000 -12.5000
v -21.0000 0.0000 -7.5000
v 21.0000 0.0000 -7.5000
v 21.0000 2.0000 -7.5000
v -21.0000 2.0000 -7.5000
f 73 74 75 76
f 77 80 79 78
f 73 77 78 74
f 76 75 79 80
f 73 76 80 77
f 74 78 79 75
o void_west_edge
usemtl Concrete
v -21.0000 0.0000 -9.0000
v -16.0000 0.0000 -9.0000
v -16.0000 2.0000 -9.0000
v -21.0000 2.0000 -9.0000
v -21.0000 0.0000 9.0000
v -16.0000 0.0000 9.0000
v -16.0000 2.0000 9.0000
v -21.0000 2.0000 9.0000
f 81 82 83 84
f 85 88 87 86
f 81 85 86 82
f 84 83 87 88
f 81 84 88 85
f 82 86 87 83
o void_east_edge
usemtl Concrete
v 16.0000 0.0000 -9.0000
v 21.0000 0.0000 -9.0000
v 21.0000 2.0000 -9.0000
v 16.0000 2.0000 -9.0000
v 16.0000 0.0000 9.0000
v 21.0000 0.0000 9.0000
v 21.0000 2.0000 9.0000
v 16.0000 2.0000 9.0000
f 89 90 91 92
f 93 96 95 94
f 89 93 94 90
f 92 91 95 96
f 89 92 96 93
f 90 94 95 91
o mid_bridge_main
usemtl Concrete
v -25.0000 7.0000 -2.0000
v 25.0000 7.0000 -2.0000
v 25.0000 8.0000 -2.0000
v -25.0000 8.0000 -2.0000
v -25.0000 7.0000 6.0000
v 25.0000 7.0000 6.0000
v 25.0000 8.0000 6.0000
v -25.0000 8.0000 6.0000
f 97 98 99 100
f 101 104 103 102
f 97 101 102 98
f 100 99 103 104
f 97 100 104 101
f 98 102 103 99
o mid_bridge_west
usemtl Concrete
v -30.0000 5.5000 5.0000
v -16.0000 5.5000 5.0000
v -16.0000 6.5000 5.0000
v -30.0000 6.5000 5.0000
v -30.0000 5.5000 11.0000
v -16.0000 5.5000 11.0000
v -16.0000 6.5000 11.0000
v -30.0000 6.5000 11.0000
f 105 106 107 108
f 109 112 111 110
f 105 109 110 106
f 108 107 111 112
f 105 108 112 109
f 106 110 111 107
o mid_bridge_east
usemtl Concrete
v 16.0000 5.5000 5.0000
v 30.0000 5.5000 5.0000
v 30.0000 6.5000 5.0000
v 16.0000 6.5000 5.0000
v 16.0000 5.5000 11.0000
v 30.0000 5.5000 11.0000
v 30.0000 6.5000 11.0000
v 16.0000 6.5000 11.0000
f 113 114 115 116
f 117 120 119 118
f 113 117 118 114
f 116 115 119 120
f 113 116 120 117
f 114 118 119 115
o mid_side_route_w
usemtl Concrete
v -43.0000 4.5000 6.0000
v -25.0000 4.5000 6.0000
v -25.0000 5.5000 6.0000
v -43.0000 5.5000 6.0000
v -43.0000 4.5000 14.0000
v -25.0000 4.5000 14.0000
v -25.0000 5.5000 14.0000
v -43.0000 5.5000 14.0000
f 121 122 123 124
f 125 128 127 126
f 121 125 126 122
f 124 123 127 128
f 121 124 128 125
f 122 126 127 123
o mid_side_route_e
usemtl Concrete
v 25.0000 4.5000 6.0000
v 43.0000 4.5000 6.0000
v 43.0000 5.5000 6.0000
v 25.0000 5.5000 6.0000
v 25.0000 4.5000 14.0000
v 43.0000 4.5000 14.0000
v 43.0000 5.5000 14.0000
v 25.0000 5.5000 14.0000
f 129 130 131 132
f 133 136 135 134
f 129 133 134 130
f 132 131 135 136
f 129 132 136 133
f 130 134 135 131
o mid_south_route
usemtl Concrete
v -22.0000 4.5000 -22.0000
v 22.0000 4.5000 -22.0000
v 22.0000 5.5000 -22.0000
v -22.0000 5.5000 -22.0000
v -22.0000 4.5000 -14.0000
v 22.0000 4.5000 -14.0000
v 22.0000 5.5000 -14.0000
v -22.0000 5.5000 -14.0000
f 137 138 139 140
f 141 144 143 142
f 137 141 142 138
f 140 139 143 144
f 137 140 144 141
f 138 142 143 139
o upper_platform_main
usemtl Concrete
v -20.0000 12.0000 6.0000
v 20.0000 12.0000 6.0000
v 20.0000 13.0000 6.0000
v -20.0000 13.0000 6.0000
v -20.0000 12.0000 18.0000
v 20.0000 12.0000 18.0000
v 20.0000 13.0000 18.0000
v -20.0000 13.0000 18.0000
f 145 146 147 148
f 149 152 151 150
f 145 149 150 146
f 148 147 151 152
f 145 148 152 149
f 146 150 151 147
o upper_span_north
usemtl Concrete
v -28.0000 13.0000 21.0000
v 28.0000 13.0000 21.0000
v 28.0000 15.0000 21.0000
v -28.0000 15.0000 21.0000
v -28.0000 13.0000 27.0000
v 28.0000 13.0000 27.0000
v 28.0000 15.0000 27.0000
v -28.0000 15.0000 27.0000
f 153 154 155 156
f 157 160 159 158
f 153 157 158 154
f 156 155 159 160
f 153 156 160 157
f 154 158 159 155
o upper_span_west
usemtl Concrete
v -34.0000 12.0000 8.0000
v -22.0000 12.0000 8.0000
v -22.0000 14.0000 8.0000
v -34.0000 14.0000 8.0000
v -34.0000 12.0000 28.0000
v -22.0000 12.0000 28.0000
v -22.0000 14.0000 28.0000
v -34.0000 14.0000 28.0000
f 161 162 163 164
f 165 168 167 166
f 161 165 166 162
f 164 163 167 168
f 161 164 168 165
f 162 166 167 163
o upper_span_east
usemtl Concrete
v 22.0000 12.0000 8.0000
v 34.0000 12.0000 8.0000
v 34.0000 14.0000 8.0000
v 22.0000 14.0000 8.0000
v 22.0000 12.0000 28.0000
v 34.0000 12.0000 28.0000
v 34.0000 14.0000 28.0000
v 22.0000 14.0000 28.0000
f 169 170 171 172
f 173 176 175 174
f 169 173 174 170
f 172 171 175 176
f 169 172 176 173
f 170 174 175 171
o west_corridor_block_1
usemtl Concrete
v -49.0000 0.0000 15.0000
v -39.0000 0.0000 15.0000
v -39.0000 8.0000 15.0000
v -49.0000 8.0000 15.0000
v -49.0000 0.0000 25.0000
v -39.0000 0.0000 25.0000
v -39.0000 8.0000 25.0000
v -49.0000 8.0000 25.0000
f 177 178 179 180
f 181 184 183 182
f 177 181 182 178
f 180 179 183 184
f 177 180 184 181
f 178 182 183 179
o west_corridor_block_2
usemtl Concrete
v -37.0000 0.0000 16.0000
v -27.0000 0.0000 16.0000
v -27.0000 6.0000 16.0000
v -37.0000 6.0000 16.0000
v -37.0000 0.0000 24.0000
v -27.0000 0.0000 24.0000
v -27.0000 6.0000 24.0000
v -37.0000 6.0000 24.0000
f 185 186 187 188
f 189 192 191 190
f 185 189 190 186
f 188 187 191 192
f 185 188 192 189
f 186 190 191 187
o west_corridor_block_3
usemtl Concrete
v -30.0000 0.0000 8.0000
v -18.0000 0.0000 8.0000
v -18.0000 5.0000 8.0000
v -30.0000 5.0000 8.0000
v -30.0000 0.0000 16.0000
v -18.0000 0.0000 16.0000
v -18.0000 5.0000 16.0000
v -30.0000 5.0000 16.0000
f 193 194 195 196
f 197 200 199 198
f 193 197 198 194
f 196 195 199 200
f 193 196 200 197
f 194 198 199 195
o east_corridor_block_1
usemtl Concrete
v 39.0000 0.0000 15.0000
v 49.0000 0.0000 15.0000
v 49.0000 8.0000 15.0000
v 39.0000 8.0000 15.0000
v 39.0000 0.0000 25.0000
v 49.0000 0.0000 25.0000
v 49.0000 8.0000 25.0000
v 39.0000 8.0000 25.0000
f 201 202 203 204
f 205 208 207 206
f 201 205 206 202
f 204 203 207 208
f 201 204 208 205
f 202 206 207 203
o east_corridor_block_2
usemtl Concrete
v 27.0000 0.0000 16.0000
v 37.0000 0.0000 16.0000
v 37.0000 6.0000 16.0000
v 27.0000 6.0000 16.0000
v 27.0000 0.0000 24.0000
v 37.0000 0.0000 24.0000
v 37.0000 6.0000 24.0000
v 27.0000 6.0000 24.0000
f 209 210 211 212
f 213 216 215 214
f 209 213 214 210
f 212 211 215 216
f 209 212 216 213
f 210 214 215 211
o east_dark_hall_block
usemtl DarkConcrete
v 31.0000 0.0000 -11.0000
v 49.0000 0.0000 -11.0000
v 49.0000 10.0000 -11.0000
v 31.0000 10.0000 -11.0000
v 31.0000 0.0000 7.0000
v 49.0000 0.0000 7.0000
v 49.0000 10.0000 7.0000
v 31.0000 10.0000 7.0000
f 217 218 219 220
f 221 224 223 222
f 217 221 222 218
f 220 219 223 224
f 217 220 224 221
f 218 222 223 219
o north_back_mass_1
usemtl Concrete
v -27.0000 0.0000 24.0000
v -9.0000 0.0000 24.0000
v -9.0000 6.0000 24.0000
v -27.0000 6.0000 24.0000
v -27.0000 0.0000 32.0000
v -9.0000 0.0000 32.0000
v -9.0000 6.0000 32.0000
v -27.0000 6.0000 32.0000
f 225 226 227 228
f 229 232 231 230
f 225 229 230 226
f 228 227 231 232
f 225 228 232 229
f 226 230 231 227
o north_back_mass_2
usemtl Concrete
v 9.0000 0.0000 24.0000
v 27.0000 0.0000 24.0000
v 27.0000 6.0000 24.0000
v 9.0000 6.0000 24.0000
v 9.0000 0.0000 32.0000
v 27.0000 0.0000 32.0000
v 27.0000 6.0000 32.0000
v 9.0000 6.0000 32.0000
f 233 234 235 236
f 237 240 239 238
f 233 237 238 234
f 236 235 239 240
f 233 236 240 237
f 234 238 239 235
o south_back_mass_1
usemtl Concrete
v -25.0000 0.0000 -34.0000
v -11.0000 0.0000 -34.0000
v -11.0000 6.0000 -34.0000
v -25.0000 6.0000 -34.0000
v -25.0000 0.0000 -26.0000
v -11.0000 0.0000 -26.0000
v -11.0000 6.0000 -26.0000
v -25.0000 6.0000 -26.0000
f 241 242 243 244
f 245 248 247 246
f 241 245 246 242
f 244 243 247 248
f 241 244 248 245
f 242 246 247 243
o south_back_mass_2
usemtl Concrete
v 11.0000 0.0000 -34.0000
v 25.0000 0.0000 -34.0000
v 25.0000 6.0000 -34.0000
v 11.0000 6.0000 -34.0000
v 11.0000 0.0000 -26.0000
v 25.0000 0.0000 -26.0000
v 25.0000 6.0000 -26.0000
v 11.0000 6.0000 -26.0000
f 249 250 251 252
f 253 256 255 254
f 249 253 254 250
f 252 251 255 256
f 249 252 256 253
f 250 254 255 251
o pillar_01
usemtl Concrete
v -15.5000 0.0000 -7.5000
v -12.5000 0.0000 -7.5000
v -12.5000 7.0000 -7.5000
v -15.5000 7.0000 -7.5000
v -15.5000 0.0000 -4.5000
v -12.5000 0.0000 -4.5000
v -12.5000 7.0000 -4.5000
v -15.5000 7.0000 -4.5000
f 257 258 259 260
f 261 264 263 262
f 257 261 262 258
f 260 259 263 264
f 257 260 264 261
f 258 262 263 259
o pillar_02
usemtl Concrete
v -7.5000 0.0000 -7.5000
v -4.5000 0.0000 -7.5000
v -4.5000 7.0000 -7.5000
v -7.5000 7.0000 -7.5000
v -7.5000 0.0000 -4.5000
v -4.5000 0.0000 -4.5000
v -4.5000 7.0000 -4.5000
v -7.5000 7.0000 -4.5000
f 265 266 267 268
f 269 272 271 270
f 265 269 270 266
f 268 267 271 272
f 265 268 272 269
f 266 270 271 267
o pillar_03
usemtl Concrete
v 4.5000 0.0000 -7.5000
v 7.5000 0.0000 -7.5000
v 7.5000 7.0000 -7.5000
v 4.5000 7.0000 -7.5000
v 4.5000 0.0000 -4.5000
v 7.5000 0.0000 -4.5000
v 7.5000 7.0000 -4.5000
v 4.5000 7.0000 -4.5000
f 273 274 275 276
f 277 280 279 278
f 273 277 278 274
f 276 275 279 280
f 273 276 280 277
f 274 278 279 275
o pillar_04
usemtl Concrete
v 12.5000 0.0000 -7.5000
v 15.5000 0.0000 -7.5000
v 15.5000 7.0000 -7.5000
v 12.5000 7.0000 -7.5000
v 12.5000 0.0000 -4.5000
v 15.5000 0.0000 -4.5000
v 15.5000 7.0000 -4.5000
v 12.5000 7.0000 -4.5000
f 281 282 283 284
f 285 288 287 286
f 281 285 286 282
f 284 283 287 288
f 281 284 288 285
f 282 286 287 283
o pillar_05
usemtl Concrete
v -15.5000 0.0000 4.5000
v -12.5000 0.0000 4.5000
v -12.5000 7.0000 4.5000
v -15.5000 7.0000 4.5000
v -15.5000 0.0000 7.5000
v -12.5000 0.0000 7.5000
v -12.5000 7.0000 7.5000
v -15.5000 7.0000 7.5000
f 289 290 291 292
f 293 296 295 294
f 289 293 294 290
f 292 291 295 296
f 289 292 296 293
f 290 294 295 291
o pillar_06
usemtl Concrete
v -7.5000 0.0000 4.5000
v -4.5000 0.0000 4.5000
v -4.5000 7.0000 4.5000
v -7.5000 7.0000 4.5000
v -7.5000 0.0000 7.5000
v -4.5000 0.0000 7.5000
v -4.5000 7.0000 7.5000
v -7.5000 7.0000 7.5000
f 297 298 299 300
f 301 304 303 302
f 297 301 302 298
f 300 299 303 304
f 297 300 304 301
f 298 302 303 299
o pillar_07
usemtl Concrete
v 4.5000 0.0000 4.5000
v 7.5000 0.0000 4.5000
v 7.5000 7.0000 4.5000
v 4.5000 7.0000 4.5000
v 4.5000 0.0000 7.5000
v 7.5000 0.0000 7.5000
v 7.5000 7.0000 7.5000
v 4.5000 7.0000 7.5000
f 305 306 307 308
f 309 312 311 310
f 305 309 310 306
f 308 307 311 312
f 305 308 312 309
f 306 310 311 307
o pillar_08
usemtl Concrete
v 12.5000 0.0000 4.5000
v 15.5000 0.0000 4.5000
v 15.5000 7.0000 4.5000
v 12.5000 7.0000 4.5000
v 12.5000 0.0000 7.5000
v 15.5000 0.0000 7.5000
v 15.5000 7.0000 7.5000
v 12.5000 7.0000 7.5000
f 313 314 315 316
f 317 320 319 318
f 313 317 318 314
f 316 315 319 320
f 313 316 320 317
f 314 318 319 315
o pillar_09
usemtl Concrete
v -27.5000 0.5000 10.5000
v -24.5000 0.5000 10.5000
v -24.5000 7.5000 10.5000
v -27.5000 7.5000 10.5000
v -27.5000 0.5000 13.5000
v -24.5000 0.5000 13.5000
v -24.5000 7.5000 13.5000
v -27.5000 7.5000 13.5000
f 321 322 323 324
f 325 328 327 326
f 321 325 326 322
f 324 323 327 328
f 321 324 328 325
f 322 326 327 323
o pillar_10
usemtl Concrete
v 24.5000 0.5000 10.5000
v 27.5000 0.5000 10.5000
v 27.5000 7.5000 10.5000
v 24.5000 7.5000 10.5000
v 24.5000 0.5000 13.5000
v 27.5000 0.5000 13.5000
v 27.5000 7.5000 13.5000
v 24.5000 7.5000 13.5000
f 329 330 331 332
f 333 336 335 334
f 329 333 334 330
f 332 331 335 336
f 329 332 336 333
f 330 334 335 331
o pillar_11
usemtl Concrete
v -27.5000 0.5000 -13.5000
v -24.5000 0.5000 -13.5000
v -24.5000 7.5000 -13.5000
v -27.5000 7.5000 -13.5000
v -27.5000 0.5000 -10.5000
v -24.5000 0.5000 -10.5000
v -24.5000 7.5000 -10.5000
v -27.5000 7.5000 -10.5000
f 337 338 339 340
f 341 344 343 342
f 337 341 342 338
f 340 339 343 344
f 337 340 344 341
f 338 342 343 339
o pillar_12
usemtl Concrete
v 24.5000 0.5000 -13.5000
v 27.5000 0.5000 -13.5000
v 27.5000 7.5000 -13.5000
v 24.5000 7.5000 -13.5000
v 24.5000 0.5000 -10.5000
v 27.5000 0.5000 -10.5000
v 27.5000 7.5000 -10.5000
v 24.5000 7.5000 -10.5000
f 345 346 347 348
f 349 352 351 350
f 345 349 350 346
f 348 347 351 352
f 345 348 352 349
f 346 350 351 347
o tall_pillar_1
usemtl Concrete
v 20.7500 0.0000 24.7500
v 23.2500 0.0000 24.7500
v 23.2500 18.0000 24.7500
v 20.7500 18.0000 24.7500
v 20.7500 0.0000 27.2500
v 23.2500 0.0000 27.2500
v 23.2500 18.0000 27.2500
v 20.7500 18.0000 27.2500
f 353 354 355 356
f 357 360 359 358
f 353 357 358 354
f 356 355 359 360
f 353 356 360 357
f 354 358 359 355
o tall_pillar_2
usemtl Concrete
v 28.7500 0.0000 24.7500
v 31.2500 0.0000 24.7500
v 31.2500 18.0000 24.7500
v 28.7500 18.0000 24.7500
v 28.7500 0.0000 27.2500
v 31.2500 0.0000 27.2500
v 31.2500 18.0000 27.2500
v 28.7500 18.0000 27.2500
f 361 362 363 364
f 365 368 367 366
f 361 365 366 362
f 364 363 367 368
f 361 364 368 365
f 362 366 367 363
o tall_pillar_3
usemtl Concrete
v 36.7500 0.0000 24.7500
v 39.2500 0.0000 24.7500
v 39.2500 18.0000 24.7500
v 36.7500 18.0000 24.7500
v 36.7500 0.0000 27.2500
v 39.2500 0.0000 27.2500
v 39.2500 18.0000 27.2500
v 36.7500 18.0000 27.2500
f 369 370 371 372
f 373 376 375 374
f 369 373 374 370
f 372 371 375 376
f 369 372 376 373
f 370 374 375 371
o tall_pillar_4
usemtl Concrete
v 44.7500 0.0000 24.7500
v 47.2500 0.0000 24.7500
v 47.2500 18.0000 24.7500
v 44.7500 18.0000 24.7500
v 44.7500 0.0000 27.2500
v 47.2500 0.0000 27.2500
v 47.2500 18.0000 27.2500
v 44.7500 18.0000 27.2500
f 377 378 379 380
f 381 384 383 382
f 377 381 382 378
f 380 379 383 384
f 377 380 384 381
f 378 382 383 379
o beam_1
usemtl Concrete
v -33.0000 15.0000 4.0000
v 33.0000 15.0000 4.0000
v 33.0000 17.0000 4.0000
v -33.0000 17.0000 4.0000
v -33.0000 15.0000 8.0000
v 33.0000 15.0000 8.0000
v 33.0000 17.0000 8.0000
v -33.0000 17.0000 8.0000
f 385 386 387 388
f 389 392 391 390
f 385 389 390 386
f 388 387 391 392
f 385 388 392 389
f 386 390 391 387
o beam_2
usemtl Concrete
v -27.0000 15.0000 -8.0000
v 27.0000 15.0000 -8.0000
v 27.0000 17.0000 -8.0000
v -27.0000 17.0000 -8.0000
v -27.0000 15.0000 -4.0000
v 27.0000 15.0000 -4.0000
v 27.0000 17.0000 -4.0000
v -27.0000 17.0000 -4.0000
f 393 394 395 396
f 397 400 399 398
f 393 397 398 394
f 396 395 399 400
f 393 396 400 397
f 394 398 399 395
o beam_3
usemtl Concrete
v -26.0000 14.0000 1.0000
v -22.0000 14.0000 1.0000
v -22.0000 16.0000 1.0000
v -26.0000 16.0000 1.0000
v -26.0000 14.0000 35.0000
v -22.0000 14.0000 35.0000
v -22.0000 16.0000 35.0000
v -26.0000 16.0000 35.0000
f 401 402 403 404
f 405 408 407 406
f 401 405 406 402
f 404 403 407 408
f 401 404 408 405
f 402 406 407 403
o beam_4
usemtl Concrete
v 22.0000 14.0000 1.0000
v 26.0000 14.0000 1.0000
v 26.0000 16.0000 1.0000
v 22.0000 16.0000 1.0000
v 22.0000 14.0000 35.0000
v 26.0000 14.0000 35.0000
v 26.0000 16.0000 35.0000
v 22.0000 16.0000 35.0000
f 409 410 411 412
f 413 416 415 414
f 409 413 414 410
f 412 411 415 416
f 409 412 416 413
f 410 414 415 411
o beam_5
usemtl Concrete
v -20.0000 17.0000 20.0000
v 20.0000 17.0000 20.0000
v 20.0000 19.0000 20.0000
v -20.0000 19.0000 20.0000
v -20.0000 17.0000 24.0000
v 20.0000 17.0000 24.0000
v 20.0000 19.0000 24.0000
v -20.0000 19.0000 24.0000
f 417 418 419 420
f 421 424 423 422
f 417 421 422 418
f 420 419 423 424
f 417 420 424 421
f 418 422 423 419
o cover_01
usemtl Concrete
v -33.0000 0.0000 -1.0000
v -27.0000 0.0000 -1.0000
v -27.0000 2.0000 -1.0000
v -33.0000 2.0000 -1.0000
v -33.0000 0.0000 1.0000
v -27.0000 0.0000 1.0000
v -27.0000 2.0000 1.0000
v -33.0000 2.0000 1.0000
f 425 426 427 428
f 429 432 431 430
f 425 429 430 426
f 428 427 431 432
f 425 428 432 429
f 426 430 431 427
o cover_02
usemtl Concrete
v -25.0000 0.0000 -17.0000
v -19.0000 0.0000 -17.0000
v -19.0000 2.0000 -17.0000
v -25.0000 2.0000 -17.0000
v -25.0000 0.0000 -15.0000
v -19.0000 0.0000 -15.0000
v -19.0000 2.0000 -15.0000
v -25.0000 2.0000 -15.0000
f 433 434 435 436
f 437 440 439 438
f 433 437 438 434
f 436 435 439 440
f 433 436 440 437
f 434 438 439 435
o cover_03
usemtl Concrete
v -13.0000 0.0000 -21.0000
v -7.0000 0.0000 -21.0000
v -7.0000 2.0000 -21.0000
v -13.0000 2.0000 -21.0000
v -13.0000 0.0000 -19.0000
v -7.0000 0.0000 -19.0000
v -7.0000 2.0000 -19.0000
v -13.0000 2.0000 -19.0000
f 441 442 443 444
f 445 448 447 446
f 441 445 446 442
f 444 443 447 448
f 441 444 448 445
f 442 446 447 443
o cover_04
usemtl Concrete
v 7.0000 0.0000 -21.0000
v 13.0000 0.0000 -21.0000
v 13.0000 2.0000 -21.0000
v 7.0000 2.0000 -21.0000
v 7.0000 0.0000 -19.0000
v 13.0000 0.0000 -19.0000
v 13.0000 2.0000 -19.0000
v 7.0000 2.0000 -19.0000
f 449 450 451 452
f 453 456 455 454
f 449 453 454 450
f 452 451 455 456
f 449 452 456 453
f 450 454 455 451
o cover_05
usemtl Concrete
v 19.0000 0.0000 -17.0000
v 25.0000 0.0000 -17.0000
v 25.0000 2.0000 -17.0000
v 19.0000 2.0000 -17.0000
v 19.0000 0.0000 -15.0000
v 25.0000 0.0000 -15.0000
v 25.0000 2.0000 -15.0000
v 19.0000 2.0000 -15.0000
f 457 458 459 460
f 461 464 463 462
f 457 461 462 458
f 460 459 463 464
f 457 460 464 461
f 458 462 463 459
o cover_06
usemtl Concrete
v 27.0000 0.0000 -1.0000
v 33.0000 0.0000 -1.0000
v 33.0000 2.0000 -1.0000
v 27.0000 2.0000 -1.0000
v 27.0000 0.0000 1.0000
v 33.0000 0.0000 1.0000
v 33.0000 2.0000 1.0000
v 27.0000 2.0000 1.0000
f 465 466 467 468
f 469 472 471 470
f 465 469 470 466
f 468 467 471 472
f 465 468 472 469
f 466 470 471 467
o cover_07
usemtl Concrete
v -23.0000 0.0000 17.0000
v -17.0000 0.0000 17.0000
v -17.0000 2.0000 17.0000
v -23.0000 2.0000 17.0000
v -23.0000 0.0000 19.0000
v -17.0000 0.0000 19.0000
v -17.0000 2.0000 19.0000
v -23.0000 2.0000 19.0000
f 473 474 475 476
f 477 480 479 478
f 473 477 478 474
f 476 475 479 480
f 473 476 480 477
f 474 478 479 475
o cover_08
usemtl Concrete
v 17.0000 0.0000 17.0000
v 23.0000 0.0000 17.0000
v 23.0000 2.0000 17.0000
v 17.0000 2.0000 17.0000
v 17.0000 0.0000 19.0000
v 23.0000 0.0000 19.0000
v 23.0000 2.0000 19.0000
v 17.0000 2.0000 19.0000
f 481 482 483 484
f 485 488 487 486
f 481 485 486 482
f 484 483 487 488
f 481 484 488 485
f 482 486 487 483
o stairs_west_up_01
usemtl Concrete
v -46.0000 -1.0000 -9.5000
v -42.0000 -1.0000 -9.5000
v -42.0000 0.0000 -9.5000
v -46.0000 0.0000 -9.5000
v -46.0000 -1.0000 -6.5000
v -42.0000 -1.0000 -6.5000
v -42.0000 0.0000 -6.5000
v -46.0000 0.0000 -6.5000
f 489 490 491 492
f 493 496 495 494
f 489 493 494 490
f 492 491 495 496
f 489 492 496 493
f 490 494 495 491
o stairs_west_up_02
usemtl Concrete
v -43.0000 0.0000 -7.9000
v -39.0000 0.0000 -7.9000
v -39.0000 1.0000 -7.9000
v -43.0000 1.0000 -7.9000
v -43.0000 0.0000 -4.9000
v -39.0000 0.0000 -4.9000
v -39.0000 1.0000 -4.9000
v -43.0000 1.0000 -4.9000
f 497 498 499 500
f 501 504 503 502
f 497 501 502 498
f 500 499 503 504
f 497 500 504 501
f 498 502 503 499
o stairs_west_up_03
usemtl Concrete
v -40.0000 1.0000 -6.3000
v -36.0000 1.0000 -6.3000
v -36.0000 2.0000 -6.3000
v -40.0000 2.0000 -6.3000
v -40.0000 1.0000 -3.3000
v -36.0000 1.0000 -3.3000
v -36.0000 2.0000 -3.3000
v -40.0000 2.0000 -3.3000
f 505 506 507 508
f 509 512 511 510
f 505 509 510 506
f 508 507 511 512
f 505 508 512 509
f 506 510 511 507
o stairs_west_up_04
usemtl Concrete
v -37.0000 2.0000 -4.7000
v -33.0000 2.0000 -4.7000
v -33.0000 3.0000 -4.7000
v -37.0000 3.0000 -4.7000
v -37.0000 2.0000 -1.7000
v -33.0000 2.0000 -1.7000
v -33.0000 3.0000 -1.7000
v -37.0000 3.0000 -1.7000
f 513 514 515 516
f 517 520 519 518
f 513 517 518 514
f 516 515 519 520
f 513 516 520 517
f 514 518 519 515
o stairs_west_up_05
usemtl Concrete
v -34.0000 3.0000 -3.1000
v -30.0000 3.0000 -3.1000
v -30.0000 4.0000 -3.1000
v -34.0000 4.0000 -3.1000
v -34.0000 3.0000 -0.1000
v -30.0000 3.0000 -0.1000
v -30.0000 4.0000 -0.1000
v -34.0000 4.0000 -0.1000
f 521 522 523 524
f 525 528 527 526
f 521 525 526 522
f 524 523 527 528
f 521 524 528 525
f 522 526 527 523
o stairs_west_up_06
usemtl Concrete
v -31.0000 4.0000 -1.5000
v -27.0000 4.0000 -1.5000
v -27.0000 5.0000 -1.5000
v -31.0000 5.0000 -1.5000
v -31.0000 4.0000 1.5000
v -27.0000 4.0000 1.5000
v -27.0000 5.0000 1.5000
v -31.0000 5.0000 1.5000
f 529 530 531 532
f 533 536 535 534
f 529 533 534 530
f 532 531 535 536
f 529 532 536 533
f 530 534 535 531
o stairs_west_up_07
usemtl Concrete
v -28.0000 5.0000 0.1000
v -24.0000 5.0000 0.1000
v -24.0000 6.0000 0.1000
v -28.0000 6.0000 0.1000
v -28.0000 5.0000 3.1000
v -24.0000 5.0000 3.1000
v -24.0000 6.0000 3.1000
v -28.0000 6.0000 3.1000
f 537 538 539 540
f 541 544 543 542
f 537 541 542 538
f 540 539 543 544
f 537 540 544 541
f 538 542 543 539
o stairs_mid_west_01
usemtl Concrete
v -32.0000 1.0000 -3.5000
v -28.0000 1.0000 -3.5000
v -28.0000 2.0000 -3.5000
v -32.0000 2.0000 -3.5000
v -32.0000 1.0000 -0.5000
v -28.0000 1.0000 -0.5000
v -28.0000 2.0000 -0.5000
v -32.0000 2.0000 -0.5000
f 545 546 547 548
f 549 552 551 550
f 545 549 550 546
f 548 547 551 552
f 545 548 552 549
f 546 550 551 547
o stairs_mid_west_02
usemtl Concrete
v -29.4000 2.0000 -2.1000
v -25.4000 2.0000 -2.1000
v -25.4000 3.0000 -2.1000
v -29.4000 3.0000 -2.1000
v -29.4000 2.0000 0.9000
v -25.4000 2.0000 0.9000
v -25.4000 3.0000 0.9000
v -29.4000 3.0000 0.9000
f 553 554 555 556
f 557 560 559 558
f 553 557 558 554
f 556 555 559 560
f 553 556 560 557
f 554 558 559 555
o stairs_mid_west_03
usemtl Concrete
v -26.8000 3.0000 -0.7000
v -22.8000 3.0000 -0.7000
v -22.8000 4.0000 -0.7000
v -26.8000 4.0000 -0.7000
v -26.8000 3.0000 2.3000
v -22.8000 3.0000 2.3000
v -22.8000 4.0000 2.3000
v -26.8000 4.0000 2.3000
f 561 562 563 564
f 565 568 567 566
f 561 565 566 562
f 564 563 567 568
f 561 564 568 565
f 562 566 567 563
o stairs_mid_west_04
usemtl Concrete
v -24.2000 4.0000 0.7000
v -20.2000 4.0000 0.7000
v -20.2000 5.0000 0.7000
v -24.2000 5.0000 0.7000
v -24.2000 4.0000 3.7000
v -20.2000 4.0000 3.7000
v -20.2000 5.0000 3.7000
v -24.2000 5.0000 3.7000
f 569 570 571 572
f 573 576 575 574
f 569 573 574 570
f 572 571 575 576
f 569 572 576 573
f 570 574 575 571
o stairs_mid_west_05
usemtl Concrete
v -21.6000 5.0000 2.1000
v -17.6000 5.0000 2.1000
v -17.6000 6.0000 2.1000
v -21.6000 6.0000 2.1000
v -21.6000 5.0000 5.1000
v -17.6000 5.0000 5.1000
v -17.6000 6.0000 5.1000
v -21.6000 6.0000 5.1000
f 577 578 579 580
f 581 584 583 582
f 577 581 582 578
f 580 579 583 584
f 577 580 584 581
f 578 582 583 579
o stairs_mid_east_01
usemtl Concrete
v 28.0000 1.0000 -3.5000
v 32.0000 1.0000 -3.5000
v 32.0000 2.0000 -3.5000
v 28.0000 2.0000 -3.5000
v 28.0000 1.0000 -0.5000
v 32.0000 1.0000 -0.5000
v 32.0000 2.0000 -0.5000
v 28.0000 2.0000 -0.5000
f 585 586 587 588
f 589 592 591 590
f 585 589 590 586
f 588 587 591 592
f 585 588 592 589
f 586 590 591 587
o stairs_mid_east_02
usemtl Concrete
v 25.4000 2.0000 -2.1000
v 29.4000 2.0000 -2.1000
v 29.4000 3.0000 -2.1000
v 25.4000 3.0000 -2.1000
v 25.4000 2.0000 0.9000
v 29.4000 2.0000 0.9000
v 29.4000 3.0000 0.9000
v 25.4000 3.0000 0.9000
f 593 594 595 596
f 597 600 599 598
f 593 597 598 594
f 596 595 599 600
f 593 596 600 597
f 594 598 599 595
o stairs_mid_east_03
usemtl Concrete
v 22.8000 3.0000 -0.7000
v 26.8000 3.0000 -0.7000
v 26.8000 4.0000 -0.7000
v 22.8000 4.0000 -0.7000
v 22.8000 3.0000 2.3000
v 26.8000 3.0000 2.3000
v 26.8000 4.0000 2.3000
v 22.8000 4.0000 2.3000
f 601 602 603 604
f 605 608 607 606
f 601 605 606 602
f 604 603 607 608
f 601 604 608 605
f 602 606 607 603
o stairs_mid_east_04
usemtl Concrete
v 20.2000 4.0000 0.7000
v 24.2000 4.0000 0.7000
v 24.2000 5.0000 0.7000
v 20.2000 5.0000 0.7000
v 20.2000 4.0000 3.7000
v 24.2000 4.0000 3.7000
v 24.2000 5.0000 3.7000
v 20.2000 5.0000 3.7000
f 609 610 611 612
f 613 616 615 614
f 609 613 614 610
f 612 611 615 616
f 609 612 616 613
f 610 614 615 611
o stairs_mid_east_05
usemtl Concrete
v 17.6000 5.0000 2.1000
v 21.6000 5.0000 2.1000
v 21.6000 6.0000 2.1000
v 17.6000 6.0000 2.1000
v 17.6000 5.0000 5.1000
v 21.6000 5.0000 5.1000
v 21.6000 6.0000 5.1000
v 17.6000 6.0000 5.1000
f 617 618 619 620
f 621 624 623 622
f 617 621 622 618
f 620 619 623 624
f 617 620 624 621
f 618 622 623 619
o stairs_upper_main_01
usemtl Concrete
v -7.5000 8.0000 10.5000
v -4.5000 8.0000 10.5000
v -4.5000 9.0000 10.5000
v -7.5000 9.0000 10.5000
v -7.5000 8.0000 13.5000
v -4.5000 8.0000 13.5000
v -4.5000 9.0000 13.5000
v -7.5000 9.0000 13.5000
f 625 626 627 628
f 629 632 631 630
f 625 629 630 626
f 628 627 631 632
f 625 628 632 629
f 626 630 631 627
o stairs_upper_main_02
usemtl Concrete
v -4.7000 9.0000 10.5000
v -1.7000 9.0000 10.5000
v -1.7000 10.0000 10.5000
v -4.7000 10.0000 10.5000
v -4.7000 9.0000 13.5000
v -1.7000 9.0000 13.5000
v -1.7000 10.0000 13.5000
v -4.7000 10.0000 13.5000
f 633 634 635 636
f 637 640 639 638
f 633 637 638 634
f 636 635 639 640
f 633 636 640 637
f 634 638 639 635
o stairs_upper_main_03
usemtl Concrete
v -1.9000 10.0000 10.5000
v 1.1000 10.0000 10.5000
v 1.1000 11.0000 10.5000
v -1.9000 11.0000 10.5000
v -1.9000 10.0000 13.5000
v 1.1000 10.0000 13.5000
v 1.1000 11.0000 13.5000
v -1.9000 11.0000 13.5000
f 641 642 643 644
f 645 648 647 646
f 641 645 646 642
f 644 643 647 648
f 641 644 648 645
f 642 646 647 643
o stairs_upper_main_04
usemtl Concrete
v 0.9000 11.0000 10.5000
v 3.9000 11.0000 10.5000
v 3.9000 12.0000 10.5000
v 0.9000 12.0000 10.5000
v 0.9000 11.0000 13.5000
v 3.9000 11.0000 13.5000
v 3.9000 12.0000 13.5000
v 0.9000 12.0000 13.5000
f 649 650 651 652
f 653 656 655 654
f 649 653 654 650
f 652 651 655 656
f 649 652 656 653
f 650 654 655 651
o stairs_upper_main_05
usemtl Concrete
v 3.7000 12.0000 10.5000
v 6.7000 12.0000 10.5000
v 6.7000 13.0000 10.5000
v 3.7000 13.0000 10.5000
v 3.7000 12.0000 13.5000
v 6.7000 12.0000 13.5000
v 6.7000 13.0000 13.5000
v 3.7000 13.0000 13.5000
f 657 658 659 660
f 661 664 663 662
f 657 661 662 658
f 660 659 663 664
f 657 660 664 661
f 658 662 663 659
o stairs_south_01
usemtl Concrete
v -20.0000 1.0000 -19.5000
v -16.0000 1.0000 -19.5000
v -16.0000 2.0000 -19.5000
v -20.0000 2.0000 -19.5000
v -20.0000 1.0000 -16.5000
v -16.0000 1.0000 -16.5000
v -16.0000 2.0000 -16.5000
v -20.0000 2.0000 -16.5000
f 665 666 667 668
f 669 672 671 670
f 665 669 670 666
f 668 667 671 672
f 665 668 672 669
f 666 670 671 667
o stairs_south_02
usemtl Concrete
v -16.8000 2.0000 -18.3000
v -12.8000 2.0000 -18.3000
v -12.8000 3.0000 -18.3000
v -16.8000 3.0000 -18.3000
v -16.8000 2.0000 -15.3000
v -12.8000 2.0000 -15.3000
v -12.8000 3.0000 -15.3000
v -16.8000 3.0000 -15.3000
f 673 674 675 676
f 677 680 679 678
f 673 677 678 674
f 676 675 679 680
f 673 676 680 677
f 674 678 679 675
o stairs_south_03
usemtl Concrete
v -13.6000 3.0000 -17.1000
v -9.6000 3.0000 -17.1000
v -9.6000 4.0000 -17.1000
v -13.6000 4.0000 -17.1000
v -13.6000 3.0000 -14.1000
v -9.6000 3.0000 -14.1000
v -9.6000 4.0000 -14.1000
v -13.6000 4.0000 -14.1000
f 681 682 683 684
f 685 688 687 686
f 681 685 686 682
f 684 683 687 688
f 681 684 688 685
f 682 686 687 683
o stairs_south_04
usemtl Concrete
v -10.4000 4.0000 -15.9000
v -6.4000 4.0000 -15.9000
v -6.4000 5.0000 -15.9000
v -10.4000 5.0000 -15.9000
v -10.4000 4.0000 -12.9000
v -6.4000 4.0000 -12.9000
v -6.4000 5.0000 -12.9000
v -10.4000 5.0000 -12.9000
f 689 690 691 692
f 693 696 695 694
f 689 693 694 690
f 692 691 695 696
f 689 692 696 693
f 690 694 695 691
o underledge_w
usemtl DarkConcrete
v -30.0000 -3.0000 -39.0000
v -6.0000 -3.0000 -39.0000
v -6.0000 -2.0000 -39.0000
v -30.0000 -2.0000 -39.0000
v -30.0000 -3.0000 -33.0000
v -6.0000 -3.0000 -33.0000
v -6.0000 -2.0000 -33.0000
v -30.0000 -2.0000 -33.0000
f 697 698 699 700
f 701 704 703 702
f 697 701 702 698
f 700 699 703 704
f 697 700 704 701
f 698 702 703 699
o underledge_e
usemtl DarkConcrete
v 6.0000 -3.0000 -39.0000
v 30.0000 -3.0000 -39.0000
v 30.0000 -2.0000 -39.0000
v 6.0000 -2.0000 -39.0000
v 6.0000 -3.0000 -33.0000
v 30.0000 -3.0000 -33.0000
v 30.0000 -2.0000 -33.0000
v 6.0000 -2.0000 -33.0000
f 705 706 707 708
f 709 712 711 710
f 705 709 710 706
f 708 707 711 712
f 705 708 712 709
f 706 710 711 707